<svg xmlns="http://www.w3.org/2000/svg" width="512" height="512" viewBox="0 0 512 512">
  <defs>
    <radialGradient id="shadow" cx="50%" cy="50%" r="50%">
      <stop offset="0%" stop-color="#ffffff" stop-opacity="0.0" />
      <stop offset="65%" stop-color="#ffffff" stop-opacity="0.0" />
      <stop offset="100%" stop-color="#02040a" stop-opacity="0.9" />
    </radialGradient>
    <radialGradient id="disc" cx="50%" cy="50%" r="48%">
      <stop offset="0%" stop-color="#ffffff" />
      <stop offset="70%" stop-color="#f8fbff" />
      <stop offset="100%" stop-color="#e6f2ff" />
    </radialGradient>
    <linearGradient id="pumpBody" x1="0%" y1="0%" x2="100%" y2="0%">
      <stop offset="0%" stop-color="#0d5e8e" />
      <stop offset="100%" stop-color="#1a91c6" />
    </linearGradient>
    <linearGradient id="pumpAccent" x1="0%" y1="0%" x2="100%" y2="100%">
      <stop offset="0%" stop-color="#f76754" />
      <stop offset="100%" stop-color="#d94a3b" />
    </linearGradient>
    <linearGradient id="tower" x1="0%" y1="0%" x2="0%" y2="100%">
      <stop offset="0%" stop-color="#7f8ba0" />
      <stop offset="100%" stop-color="#4f6079" />
    </linearGradient>
    <linearGradient id="pipe" x1="0%" y1="0%" x2="100%" y2="0%">
      <stop offset="0%" stop-color="#0f5a84" />
      <stop offset="100%" stop-color="#083754" />
    </linearGradient>
  </defs>
  <rect width="512" height="512" fill="url(#shadow)" />
  <circle cx="256" cy="256" r="210" fill="url(#disc)" />
  <g transform="translate(108 160)">
    <rect x="64" y="132" width="168" height="24" rx="12" fill="#0a2f4c" />
    <rect x="84" y="92" width="112" height="64" rx="30" fill="url(#pumpBody)" />
    <rect x="120" y="72" width="40" height="28" rx="10" fill="url(#pumpAccent)" />
    <path d="M84 124h-32c-18 0-32 14-32 32v20h24v-18c0-5 4-9 10-9h30z" fill="url(#pipe)" />
    <path d="M196 124h38c18 0 32 14 32 32v20h-24v-18c0-5-4-9-10-9h-36z" fill="url(#pipe)" />
    <circle cx="140" cy="124" r="18" fill="#0a2f4c" />
    <circle cx="140" cy="124" r="8" fill="#fefefe" />
    <g transform="translate(208 0)">
      <rect x="0" y="0" width="96" height="120" rx="16" fill="url(#tower)" />
      <rect x="14" y="18" width="30" height="40" rx="6" fill="#0f5a84" />
      <rect x="52" y="18" width="30" height="40" rx="6" fill="#0f5a84" />
      <circle cx="29" cy="86" r="8" fill="#f76754" />
      <circle cx="67" cy="86" r="8" fill="#36d3a5" />
      <path d="M29 52v18" stroke="#fefefe" stroke-width="4" stroke-linecap="round" />
      <path d="M67 52v18" stroke="#fefefe" stroke-width="4" stroke-linecap="round" />
    </g>
    <path d="M70 36c-10-12-3-28 12-32 8-2 16 1 22 6 6-11 20-16 32-11 14 6 20 22 12 35-9 16-42 41-42 41s-31-22-38-39z" fill="#1aa5d6" />
    <path d="M94 2c7 2 13 7 16 14 6-11 20-16 32-11 11 5 17 15 16 26 6-12 1-27-12-34-12-6-26-1-34 9-4-4-9-7-15-9z" fill="#57d0ff" opacity="0.7" />
  </g>
  <text x="256" y="360" fill="#0e3f66" font-family="'Inter', 'Segoe UI', sans-serif" font-size="46" font-weight="800" text-anchor="middle">SERVI<tspan fill="#1aa5d6">GENMAN</tspan></text>
  <text x="256" y="398" fill="#4f6580" font-family="'Inter', 'Segoe UI', sans-serif" font-size="20" font-weight="600" text-anchor="middle">MANTENIMIENTO DE BOMBAS Y SERVICIOS ELÉCTRICOS</text>
</svg>
